<svg xmlns:mydata="http://www.w3.org/2000/svg" mydata:contrastcolor="11111f" mydata:template="Contrast" mydata:presentation="2.5" mydata:layouttype="undefined" mydata:specialfontid="undefined" mydata:id1="1018" mydata:id2="166" mydata:companyname="kr" mydata:companytagline="blog" xmlns="http://www.w3.org/2000/svg" viewBox="0 0 550 470" class="svg-primary-tile">
  <g data-paper-data="{&quot;isGlobalGroup&quot;:true,&quot;bounds&quot;:{&quot;x&quot;:65,&quot;y&quot;:137.40960917118,&quot;width&quot;:420,&quot;height&quot;:195.18078165763998}}" fill="#59cbe8" fill-rule="none" stroke-miterlimit="10" font-family="none" font-weight="none" font-size="none" text-anchor="none" style="mix-blend-mode:normal">
    <g data-paper-data="{&quot;isSecondaryText&quot;:true}" fill-rule="nonzero">
      <path d="m331.143 317.065 2.367-.42v-18.528l-2.31-.238v-1.373h3.543a54.01 54.01 0 0 0 2.191-.119 37.63 37.63 0 0 1 2.962-.077c1.12.01 2.113.128 2.976.357.864.229 1.585.556 2.164.98a4.231 4.231 0 0 1 1.316 1.541c.3.602.449 1.277.449 2.024 0 .644-.082 1.255-.245 1.834a4.972 4.972 0 0 1-.75 1.569 4.75 4.75 0 0 1-1.274 1.204c-.514.336-1.12.584-1.82.742.765.01 1.484.143 2.156.4a5.308 5.308 0 0 1 1.75 1.078 5.086 5.086 0 0 1 1.177 1.667c.29.648.434 1.37.434 2.163 0 .943-.184 1.816-.553 2.62-.369.802-.93 1.498-1.68 2.086-.752.588-1.695 1.048-2.83 1.38-1.134.33-2.471.497-4.012.497-.401 0-.812-.007-1.232-.021-.42-.014-.827-.03-1.219-.05a55.89 55.89 0 0 1-1.106-.063 97.35 97.35 0 0 1-.882-.063h-3.572zm5.098-11.12c.233.047.497.077.791.091.294.014.593.021.897.021.303 0 .602-.002.896-.007.294-.004.558-.007.791-.007.71 0 1.35-.09 1.919-.273a3.838 3.838 0 0 0 1.45-.82 3.64 3.64 0 0 0 .917-1.35c.214-.537.322-1.16.322-1.87 0-.654-.124-1.226-.371-1.716a3.44 3.44 0 0 0-1.03-1.225 4.615 4.615 0 0 0-1.547-.735 7.282 7.282 0 0 0-1.94-.245c-.177 0-.406-.003-.686-.007-.28-.005-.572-.003-.875.007a9.45 9.45 0 0 0-.862.063 2.54 2.54 0 0 0-.644.147zm0 10.42c.121.075.32.147.595.217.276.07.581.128.918.175.336.047.683.084 1.043.112.36.028.688.042.987.042.766 0 1.485-.08 2.157-.238a4.973 4.973 0 0 0 1.758-.77c.5-.355.894-.82 1.183-1.394.29-.574.434-1.277.434-2.108 0-1.615-.441-2.793-1.323-3.536-.883-.742-2.201-1.113-3.957-1.113a73.1 73.1 0 0 1-1.001-.007 33.87 33.87 0 0 0-1.008 0c-.332.005-.65.012-.953.02-.303.01-.58.029-.833.057z" data-paper-data="{&quot;glyphName&quot;:&quot;B&quot;,&quot;glyphIndex&quot;:0,&quot;firstGlyphOfWord&quot;:true,&quot;word&quot;:1}"/>
      <path d="m371.5 317.065 2.367-.42V298.27l-2.31-.238v-1.527h7.534v1.527l-2.48.238-.027 18.416 7.492-.336 1.723-3.333 1.218.602-.91 4.635H371.5z" data-paper-data="{&quot;glyphName&quot;:&quot;L&quot;,&quot;glyphIndex&quot;:1,&quot;word&quot;:1}"/>
      <path d="M409.124 307.724c.037-1.783.324-3.375.861-4.776.537-1.4 1.258-2.586 2.164-3.557a9.45 9.45 0 0 1 3.151-2.24 10.144 10.144 0 0 1 3.823-.841c1.457-.037 2.769.212 3.936.75a8.291 8.291 0 0 1 2.962 2.268c.807.976 1.421 2.138 1.841 3.487.42 1.35.617 2.818.589 4.405-.038 1.783-.316 3.377-.834 4.782-.518 1.405-1.216 2.596-2.093 3.572a9.067 9.067 0 0 1-3.074 2.247 9.596 9.596 0 0 1-3.747.827c-1.475.028-2.81-.227-4.005-.764a8.555 8.555 0 0 1-3.046-2.275c-.836-.98-1.473-2.143-1.912-3.488-.439-1.344-.644-2.81-.616-4.397zm9.817 9.453c1.027 0 1.942-.226 2.745-.68.803-.452 1.482-1.106 2.038-1.96.555-.854.978-1.895 1.267-3.123.29-1.228.435-2.621.435-4.18 0-.813-.064-1.61-.19-2.395a12.555 12.555 0 0 0-.56-2.22 10.233 10.233 0 0 0-.917-1.933 6.597 6.597 0 0 0-1.274-1.526 5.69 5.69 0 0 0-1.632-1.001 5.215 5.215 0 0 0-1.968-.364c-1.027 0-1.956.224-2.787.672-.83.448-1.538 1.097-2.121 1.946-.584.85-1.034 1.889-1.352 3.116-.317 1.228-.476 2.622-.476 4.18 0 1.224.152 2.403.455 3.537.304 1.134.745 2.143 1.324 3.025a6.964 6.964 0 0 0 2.128 2.115c.84.527 1.802.791 2.885.791z" data-paper-data="{&quot;glyphName&quot;:&quot;O&quot;,&quot;glyphIndex&quot;:2,&quot;word&quot;:1}"/>
      <path d="M452.938 308.116c0-1.204.136-2.332.406-3.382.271-1.05.654-2.014 1.149-2.892a10.64 10.64 0 0 1 1.771-2.339 10.831 10.831 0 0 1 4.95-2.822 11.704 11.704 0 0 1 2.956-.371 22.159 22.159 0 0 1 4.16.357c.522.098.97.199 1.344.301.373.103.682.182.924.238l-.224 4.062h-1.484l-.729-2.34c-.074-.092-.23-.197-.469-.314a5.425 5.425 0 0 0-.959-.336c-.401-.108-.89-.194-1.464-.26a15.952 15.952 0 0 0-1.981-.083 6.96 6.96 0 0 0-2.857.665 7.15 7.15 0 0 0-2.388 1.827c-.686.794-1.232 1.765-1.639 2.913-.406 1.149-.609 2.451-.609 3.908 0 .85.068 1.683.203 2.5.136.817.339 1.591.61 2.324.27.733.613 1.413 1.029 2.038a7.23 7.23 0 0 0 1.456 1.618 6.472 6.472 0 0 0 1.891 1.064c.705.257 1.482.385 2.332.385.401 0 .817-.02 1.246-.063a8.1 8.1 0 0 0 1.26-.224 5.452 5.452 0 0 0 1.163-.448 3.49 3.49 0 0 0 .966-.75v-5.741l-3.403-.238v-1.373h7.857v1.373l-1.723.252v7.156c-.308.019-.74.107-1.295.266-.556.159-1.19.332-1.905.518-.714.187-1.482.357-2.304.512-.821.154-1.657.23-2.506.23-1.448 0-2.769-.263-3.964-.79a9.043 9.043 0 0 1-3.074-2.2c-.854-.938-1.517-2.049-1.988-3.333-.472-1.283-.708-2.686-.708-4.208z" data-paper-data="{&quot;glyphName&quot;:&quot;G&quot;,&quot;glyphIndex&quot;:3,&quot;lastGlyphOfWord&quot;:true,&quot;word&quot;:1}"/>
    </g>
    <g data-paper-data="{&quot;isPrimaryText&quot;:true}" fill-rule="nonzero">
      <path d="M376.283 265.301c19.507 0 35.922-15.7 41.631-33.067.476-1.427-.476-2.141-1.427-2.141-.714 0-1.666.238-1.903.952-5.948 15.463-19.983 30.688-38.063 30.688-13.322 0-22.6-11.657-23.79-24.265 7.613-2.141 11.42-7.613 11.42-12.609 0-4.282-3.807-8.088-11.42-8.088-10.467.238-14.749 11.657-16.176 22.124-.714-4.52-1.19-9.991-1.19-15.7 0-1.904 0-4.045.238-5.948 21.886-5.234 37.587-32.592 37.587-50.434 0-8.088-3.33-15.463-13.084-15.463-27.12.238-33.067 50.672-33.067 70.179 0 12.608 1.665 24.265 4.758 31.64.713 1.665 1.903 2.14 3.33 2.14 2.141 0 4.52-1.665 4.52-4.043l-.238-.952c0-9.278 2.141-29.975 13.322-29.975 1.666 0 3.33 2.38 3.33 5.234 0 3.568-2.854 7.85-11.656 9.04.714 19.27 11.895 30.688 31.878 30.688zm-40.442-51.86c1.19-19.746 7.137-58.522 24.265-58.522 6.661 0 9.516 4.758 9.516 11.419 0 15.463-13.798 41.393-33.781 47.102z" data-paper-data="{&quot;glyphName&quot;:&quot;k&quot;,&quot;glyphIndex&quot;:0,&quot;firstGlyphOfWord&quot;:true,&quot;word&quot;:1}"/>
      <path d="M450.981 261.257c16.415 0 29.499-14.511 34.019-29.26-.238-1.666-.952-2.38-1.903-2.38-.476 0-1.19.238-1.428 1.19-5.471 15.463-18.555 26.644-29.26 26.644-13.798-.238-16.653-9.278-16.653-19.745 0-7.85 1.665-15.94 1.665-21.887 0-3.092-3.092-4.52-6.185-4.757-2.617 0-7.85 1.427-10.705 1.903-.952-6.186-4.282-8.327-7.613-8.327-3.33 0-6.66 2.855-6.66 6.186 0 2.854 2.854 6.185 8.563 6.185l2.38-.238c0 5.234-1.428 10.943-3.331 15.939-.238 1.427.714 2.379 1.903 2.379.476 0 1.19-.476 1.427-.952 2.141-5.71 3.569-11.657 3.569-17.604 2.617-.476 5.71-1.427 7.612-1.427.476.238.714 1.19.714 2.854-.238 5.948-.714 12.133-.714 18.318 0 13.322 3.093 24.98 22.6 24.98zm-34.018-48.054c-2.855 0-4.045-2.141-4.045-3.569 0-.713.238-1.427.952-1.427 1.903 0 2.617 3.092 3.093 4.996z" data-paper-data="{&quot;glyphName&quot;:&quot;r&quot;,&quot;glyphIndex&quot;:1,&quot;lastGlyphOfWord&quot;:true,&quot;word&quot;:1}"/>
    </g>
    <g data-paper-data="{&quot;isIcon&quot;:&quot;true&quot;,&quot;iconType&quot;:&quot;icon&quot;,&quot;rawIconId&quot;:&quot;806710&quot;,&quot;selectedEffects&quot;:{&quot;container&quot;:&quot;&quot;,&quot;transformation&quot;:&quot;&quot;,&quot;pattern&quot;:&quot;&quot;},&quot;combineTerms&quot;:&quot;undefined&quot;,&quot;isDetailed&quot;:false,&quot;fillRule&quot;:&quot;evenodd&quot;,&quot;bounds&quot;:{&quot;x&quot;:65,&quot;y&quot;:137.40960917118,&quot;width&quot;:210.591449703259,&quot;height&quot;:195.18078165763998},&quot;iconStyle&quot;:&quot;standalone&quot;,&quot;suitableAsStandaloneIcon&quot;:true}" fill-rule="evenodd">
      <path d="M275.196 216.22c-2.765-19.985-5.899-42.635-24.876-58.665-8.467-7.152-34.565-24.527-53.374-19.119-5.212 1.498-8.729 4.943-9.657 9.444-.925 4.498 1.004 9.213 5.16 12.616 3.776 3.09 8.63 3.459 12.91 3.787 2.584.196 5.26.4 6.868 1.27 7.787 4.2 15.836 8.543 21.835 14.57 7.042 7.082 11.398 15.39 12.596 24.034l.52 3.683c1.43 9.892 3.207 22.204.878 30.958-.304 1.128-.767 2.36-1.236 3.641-2.064 5.592-5.903 15.999 3.997 21.832 2.913 1.72 5.492 2.316 7.676 2.316 2.893 0 5.092-1.053 6.438-1.95 13.651-9.095 10.317-48.037 10.265-48.417zm-45.493 59.224c-.649.408-1.308.877-1.985 1.422-2.426 1.947-4.121 4.229-5.76 6.438-1.599 2.15-3.104 4.18-5.14 5.595-5.547 3.866-12.268 7.67-18.912 10.714-8.005 3.666-13.665 4.07-22.584 3.545-25.384-1.47-69.448-9.16-79.417-44.158-7.725-27.133-1.425-55.261 16.44-73.4 7.715-7.835 18.032-11.715 28.953-15.822l2.006-.756c1.484-.56 3.63-1.067 5.902-1.598 7.577-1.785 17.956-4.229 20.862-13.206 2.002-6.179 1.315-10.825-2.047-13.81-6.744-6.003-20.082-.643-33.16 5.36-1.174.538-2.095.966-2.679 1.201-18.36 7.383-33.364 14.31-45.451 30.41-12.561 16.723-20.241 38.617-21.636 61.643-1.149 19.005 8.167 41.43 23.734 57.125 13.772 13.883 34.859 26.623 53.719 32.453 8.574 2.651 17.817 3.99 27.53 3.99 1.115 0 2.234-.017 3.362-.055 10.732-.338 19.168-3.162 28.097-6.15 2.213-.74 4.47-1.499 6.828-2.234 10.179-3.186 29.836-13.734 37.464-23.012 5.392-6.562 5.32-17.777-.159-24-4.1-4.66-10.213-5.309-15.967-1.695z" data-paper-data="{&quot;isPathIcon&quot;:true}"/>
    </g>
  </g>
</svg>
